<svg width="19" height="36" viewBox="0 0 19 36" fill="none" xmlns="http://www.w3.org/2000/svg">
<path d="M6.29924 17.6325L18.2362 4.44496C18.5649 4.08271 18.7457 3.59838 18.7457 3.08195C18.7457 2.56524 18.5649 2.08119 18.2362 1.71837L17.1902 0.563429C16.862 0.200037 16.4234 0 15.9559 0C15.4884 0 15.0502 0.200037 14.7218 0.563429L0.508989 16.2644C0.179266 16.6283 -0.00129015 17.1147 6.9502e-06 17.6317C-0.00129015 18.151 0.179007 18.6367 0.508989 19.001L14.7086 34.6867C15.037 35.0501 15.4752 35.2501 15.9429 35.2501C16.4104 35.2501 16.8485 35.0501 17.1772 34.6867L18.2229 33.5318C18.9034 32.78 18.9034 31.5563 18.2229 30.8049L6.29924 17.6325Z" fill="black"/>
</svg>
