<svg width="147" height="125" viewBox="0 0 147 125" fill="none" xmlns="http://www.w3.org/2000/svg">
<path d="M1.4734 54.454L69.2982 122.428C69.8644 123.59 70.967 124.29 72.2037 124.305C72.6358 124.35 73.0679 124.35 73.5 124.246C73.9321 124.35 74.3642 124.35 74.7963 124.305C76.033 124.29 77.1356 123.59 77.7018 122.428L145.527 54.454C146.495 53.4706 146.748 52.07 146.301 50.8482C146.331 50.2075 146.242 49.5519 145.899 48.9559L119.183 2.88508C119.154 2.84038 119.109 2.81058 119.079 2.76588C118.558 1.52918 117.336 0.664978 115.905 0.664978H31.0797C29.6493 0.664978 28.4275 1.52918 27.906 2.76588C27.8762 2.81058 27.8315 2.84038 27.8017 2.88508L1.08601 48.9559C0.743308 49.5519 0.653907 50.2075 0.683707 50.8482C0.266507 52.07 0.504905 53.4706 1.4734 54.454ZM41.2117 55.8099L59.7771 99.9139L15.7774 55.8099H41.2117ZM73.5 109.658L50.8222 55.8099H96.1778L73.5 109.658ZM87.2229 99.9139L105.788 55.8099H131.223L87.2229 99.9139ZM112.493 9.85828L133.815 46.6166H106.727L95.8053 9.85828H112.493ZM86.1352 9.85828L97.042 46.6166H49.958L60.8797 9.85828H86.1352ZM34.5067 9.85828H51.1947L40.273 46.6166H13.1699L34.5067 9.85828Z" fill="black"/>
</svg>
