<svg width="1312" height="708" viewBox="0 0 1312 708" fill="none" xmlns="http://www.w3.org/2000/svg">
<path d="M487.009 29.9519C497.938 23.8724 510.748 22.1092 522.913 25.01L614.836 46.9302C626.247 49.6514 638.252 48.2734 648.75 43.0372L696.103 19.4192C711.036 11.971 728.701 12.4637 743.196 20.7329L769.897 35.9655C786.222 45.2792 806.392 44.6504 822.106 34.3378L857.819 10.9002C871.134 2.16226 887.815 0.289728 902.735 5.85817L963.724 28.6195C976.368 33.3382 990.382 32.7455 1002.58 26.976L1047.74 5.61926C1069.38 -4.61293 1095.23 1.92326 1109.41 21.2091L1119.16 34.4725C1127 45.147 1138.76 52.2718 1151.86 54.2825L1213.3 63.7186C1245.58 68.675 1264.52 102.737 1251.7 132.769L1240.59 158.797C1230.58 182.248 1239.82 209.474 1262.03 221.99L1286.02 235.506C1310.05 249.042 1318.58 279.473 1305.09 303.525L1271.96 362.598C1263.31 378.03 1263.46 396.886 1272.35 412.183L1299.65 459.148C1315.24 485.969 1302.9 520.367 1273.81 531.155L1245.9 541.506C1231.45 546.866 1220.28 558.591 1215.62 573.284L1203.6 611.232C1196.3 634.262 1173.58 648.782 1149.62 645.73L1104.34 639.963C1091.9 638.379 1079.32 641.526 1069.1 648.781L1004.53 694.583C991.335 703.942 974.429 706.34 959.153 701.02L904.908 682.125C898.052 679.737 890.757 678.871 883.532 679.587L774.306 690.409C768.807 690.954 763.255 690.583 757.877 689.312L667.498 667.954C659.299 666.016 650.743 666.182 642.625 668.435L570.961 688.328C564.067 690.242 556.843 690.654 549.777 689.536L491.18 680.268C483.82 679.104 476.293 679.6 469.149 681.719L394.793 703.777C382.413 707.449 369.093 706.19 357.622 700.263L333.732 687.92C322.05 681.884 308.461 680.693 295.908 684.604L229.206 705.386C220.564 708.078 211.354 708.374 202.557 706.242L178.84 700.495C156.411 695.06 140.615 674.98 140.615 651.901V646.831C140.615 625.168 126.665 605.969 106.061 599.277L70.7278 587.801C42.8898 578.759 28.7367 547.846 40.0826 520.865L49.2083 499.163C55.9178 483.208 53.8979 464.917 43.8686 450.81L10.21 403.466C-2.89303 385.036 -1.99479 360.105 12.4006 342.665L43.4054 305.104C53.8042 292.506 57.3934 275.623 53.0186 259.884L33.8832 191.043C25.9299 162.431 44.5218 133.233 73.8125 128.337L167.236 112.719C177.799 110.953 187.516 105.842 194.956 98.1393L259.385 31.4326C273.386 16.9358 294.723 12.2629 313.502 19.5805L404.59 55.074C418.467 60.4817 434.034 59.4209 447.05 52.1804L487.009 29.9519Z" fill="url(#paint0_linear)"/>
<defs>
<linearGradient id="paint0_linear" x1="-61.0007" y1="-15.9998" x2="164.558" y2="984.625" gradientUnits="userSpaceOnUse">
<stop offset="0.015625" stop-color="#F7ED3E"/>
<stop offset="0.963542" stop-color="#E752FF"/>
</linearGradient>
</defs>
</svg>
