<svg width="64" height="64" viewBox="0 0 64 64" fill="none" xmlns="http://www.w3.org/2000/svg">
<g clip-path="url(#clip0)">
<path d="M32.0001 0C14.3555 0 0 14.3555 0 32.0001C0 49.6447 14.3555 64.0001 32.0001 64.0001C49.6447 64.0001 64.0001 49.6447 64.0001 32.0001C64.0001 14.3555 49.6445 0 32.0001 0ZM34.0816 50.9865C32.5613 51.2399 29.5362 51.8729 28 52.0001C26.6997 52.1078 25.4727 51.3635 24.7247 50.295C23.9747 49.2267 23.795 47.8595 24.2402 46.6329L30.2891 30.0001H24C23.9946 26.5343 26.5942 23.9859 29.9192 23.0079C31.5059 22.5411 34.4621 21.9022 36 22.0001C36.9213 22.0587 38.5273 22.6368 39.2753 23.7053C40.0253 24.7736 40.205 26.1408 39.7598 27.3674L33.7109 44.0002H39.9981C39.9993 47.4619 37.4966 50.4173 34.0816 50.9865V50.9865ZM36 20.0001C33.7908 20.0001 31.9999 18.209 31.9999 16C31.9999 13.7908 33.7908 12 36 12C38.2092 12 40 13.7908 40 16C40 18.2091 38.2093 20.0001 36 20.0001Z" fill="#161616"/>
</g>
<defs>
<clipPath id="clip0">
<rect width="64" height="64" fill="white"/>
</clipPath>
</defs>
</svg>
