<svg width="162" height="152" viewBox="0 0 162 152" fill="none" xmlns="http://www.w3.org/2000/svg">
<path d="M107.286 147.511C107.286 149.598 105.595 151.289 103.509 151.289H3.85044C1.76404 151.289 0.0727844 149.598 0.0727844 147.511V54.6018C0.0727844 52.5154 1.76404 50.8242 3.85044 50.8242H103.509C105.596 50.8242 107.287 52.5154 107.287 54.6018V147.511H107.286Z" fill="#FFD064"/>
<path d="M95.8881 50.8242C97.94 50.8242 99.6038 52.4876 99.6038 54.5399V151.289H103.509C105.596 151.289 107.287 149.598 107.287 147.511V54.6018C107.287 52.5154 105.596 50.8242 103.509 50.8242H95.8881Z" fill="#FFC250"/>
<path d="M81.661 135.796C79.0125 138.374 74.7755 138.317 72.1976 135.668L70.5974 134.024C70.4516 133.874 70.4548 133.635 70.6046 133.489L81.4122 122.969C81.4855 122.898 81.5266 122.8 81.5266 122.698C81.5266 122.596 81.4852 122.498 81.4122 122.427L70.6046 111.907C70.4548 111.761 70.4516 111.521 70.5974 111.372L72.1976 109.728C74.7755 107.079 79.0125 107.022 81.661 109.6L91.6144 119.288C92.1306 119.791 92.5508 120.391 92.797 121.068C93.4517 122.866 92.9636 124.795 91.6704 126.053L81.661 135.796Z" fill="#F9F6F6"/>
<path d="M60.2839 68.4597H47.0754C45.8529 68.4597 44.8619 67.4686 44.8619 66.2462V50.8242H62.4974V66.2462C62.4974 67.4686 61.5063 68.4597 60.2839 68.4597Z" fill="#26457D"/>
<path d="M56.0678 50.8242V66.2462C56.0678 67.4686 55.0768 68.4597 53.8543 68.4597H60.2839C61.5064 68.4597 62.4974 67.4686 62.4974 66.2462V50.8242H56.0678Z" fill="#21386B"/>
<path d="M20.8233 131.703C19.4741 131.703 18.381 130.61 18.381 129.261V112.735C18.381 111.386 19.4744 110.293 20.8233 110.293C22.1725 110.293 23.2657 111.386 23.2657 112.735V129.261C23.2657 130.61 22.1722 131.703 20.8233 131.703Z" fill="#26457D"/>
<path d="M13.8522 119.401C13.2219 119.401 12.5922 119.159 12.1145 118.675C11.1664 117.715 11.1762 116.168 12.1357 115.221L19.1065 108.336C20.058 107.397 21.588 107.396 22.5389 108.336L29.51 115.22C30.4698 116.168 30.4796 117.715 29.5315 118.675C28.5832 119.635 27.037 119.644 26.0776 118.696L20.8224 113.507L15.5678 118.696C15.0927 119.166 14.4721 119.401 13.8522 119.401V119.401Z" fill="#26457D"/>
<path d="M43.1599 131.703C41.8107 131.703 40.7175 130.61 40.7175 129.261V112.735C40.7175 111.386 41.811 110.293 43.1599 110.293C44.5091 110.293 45.6022 111.386 45.6022 112.735V129.261C45.6026 130.61 44.5091 131.703 43.1599 131.703Z" fill="#26457D"/>
<path d="M50.131 119.401C49.5108 119.401 48.8905 119.167 48.4145 118.697L43.1599 113.507L37.9053 118.697C36.9449 119.645 35.3985 119.634 34.451 118.675C33.503 117.716 33.5128 116.169 34.4722 115.221L41.443 108.337C42.3945 107.397 43.9243 107.397 44.8758 108.337L51.8466 115.221C52.806 116.169 52.8158 117.715 51.8678 118.675C51.3911 119.159 50.761 119.401 50.131 119.401V119.401Z" fill="#26457D"/>
<path d="M120.813 82.2287C143.52 82.2287 161.927 63.8212 161.927 41.1145C161.927 18.4078 143.52 0.000305176 120.813 0.000305176C98.1063 0.000305176 79.6989 18.4078 79.6989 41.1145C79.6989 63.8212 98.1063 82.2287 120.813 82.2287Z" fill="#95D6A4"/>
<path d="M120.813 0C119.474 0 118.15 0.0663853 116.843 0.19157C137.687 2.18883 153.988 19.7469 153.988 41.1145C153.988 62.4818 137.687 80.0399 116.843 82.0374C118.15 82.1626 119.474 82.229 120.813 82.229C143.52 82.2287 161.927 63.8212 161.927 41.1145C161.927 18.4075 143.52 0 120.813 0V0Z" fill="#78C2A4"/>
<path d="M117.093 54.4722C115.801 54.4722 114.51 53.9794 113.524 52.9938L101.382 40.8518C99.4106 38.8808 99.4106 35.6845 101.382 33.7135C103.353 31.7425 106.549 31.7425 108.521 33.7135L117.094 42.2864L132.694 26.6854C134.665 24.7144 137.862 24.7144 139.833 26.6854C141.804 28.6565 141.804 31.8528 139.833 33.8238L120.663 52.9941C119.677 53.9794 118.385 54.4722 117.093 54.4722V54.4722Z" fill="#F9F6F6"/>
</svg>
