<svg width="149" height="149" viewBox="0 0 149 149" fill="none" xmlns="http://www.w3.org/2000/svg">
<path d="M34.7668 98.0917C26.5494 98.0917 19.8668 104.774 19.8668 112.992C19.8668 121.209 26.5494 127.892 34.7668 127.892C42.9842 127.892 49.6668 121.209 49.6668 112.992C49.6668 104.774 42.9839 98.0917 34.7668 98.0917ZM34.7668 122.925C29.2884 122.925 24.8335 118.47 24.8335 112.992C24.8335 107.513 29.2887 103.059 34.7668 103.059C40.2448 103.059 44.7 107.514 44.7 112.992C44.7 118.47 40.2448 122.925 34.7668 122.925Z" fill="black"/>
<path d="M119.2 98.0917C110.983 98.0917 104.3 104.774 104.3 112.992C104.3 121.209 110.983 127.892 119.2 127.892C127.417 127.892 134.1 121.209 134.1 112.992C134.1 104.774 127.417 98.0917 119.2 98.0917ZM119.2 122.925C113.722 122.925 109.267 118.47 109.267 112.992C109.267 107.513 113.722 103.059 119.2 103.059C124.678 103.059 129.133 107.514 129.133 112.992C129.133 118.47 124.678 122.925 119.2 122.925Z" fill="black"/>
<path d="M148.605 84.3317L126.255 49.5649C125.798 48.8545 125.011 48.425 124.166 48.425H96.85C95.4767 48.425 94.3668 49.5375 94.3668 50.9082V112.991C94.3668 114.365 95.4767 115.475 96.85 115.475H106.783V110.508H99.3333V53.3918H122.811L144.033 86.4052V110.509H131.616V115.475H146.517C147.89 115.475 149 114.365 149 112.992V85.675C149 85.2006 148.864 84.7312 148.605 84.3317Z" fill="black"/>
<path d="M109.267 80.7082V63.325H129.134V58.3582H106.784C105.41 58.3582 104.3 59.4708 104.3 60.8414V83.1915C104.3 84.5648 105.41 85.6747 106.784 85.6747H144.034V80.7079H109.267V80.7082Z" fill="black"/>
<path d="M96.85 31.0417H2.48324C1.11255 31.0417 0 32.1543 0 33.525V112.992C0 114.365 1.11255 115.475 2.48324 115.475H22.35V110.508H4.96676V36.0082H94.3668V110.508H47.1832V115.475H96.85C98.2233 115.475 99.3332 114.365 99.3332 112.992V33.525C99.3332 32.1543 98.2233 31.0417 96.85 31.0417Z" fill="black"/>
<path d="M17.3832 100.575H2.48325V105.542H17.3832V100.575Z" fill="black"/>
<path d="M94.3667 100.575H52.15V105.542H94.3667V100.575Z" fill="black"/>
<path d="M146.516 100.575H136.583V105.542H146.516V100.575Z" fill="black"/>
<path d="M96.85 40.975H9.93323V45.9418H96.85V40.975Z" fill="black"/>
<path d="M37.25 110.508H32.2832V115.475H37.25V110.508Z" fill="black"/>
<path d="M121.684 110.508H116.717V115.475H121.684V110.508Z" fill="black"/>
<path d="M44.7 21.1082H9.93323V26.075H44.7V21.1082Z" fill="black"/>
<path d="M4.96676 21.1082H0V26.075H4.96676V21.1082Z" fill="black"/>
</svg>
