<svg width="30" height="30" viewBox="0 0 30 30" fill="none" xmlns="http://www.w3.org/2000/svg">
<path d="M15 0C6.71571 0 0 6.71571 0 15C0 23.2843 6.71571 30 15 30C23.2843 30 30 23.2843 30 15C29.9904 6.7197 23.2803 0.00961693 15 0ZM15 29.0323C7.2502 29.0323 0.967742 22.7498 0.967742 15C0.967742 7.2502 7.2502 0.967742 15 0.967742C22.7498 0.967742 29.0323 7.2502 29.0323 15C29.0237 22.7463 22.7463 29.0237 15 29.0323Z" fill="black"/>
<path d="M17.4194 23.7097H15.4839V10.6452C15.4839 10.3779 15.2672 10.1613 15 10.1613H13.5484C13.2812 10.1613 13.0645 10.3779 13.0645 10.6452C13.0645 10.9124 13.2812 11.129 13.5484 11.129H14.5161V23.7097H12.5806C12.3134 23.7097 12.0968 23.9263 12.0968 24.1935C12.0968 24.4608 12.3134 24.6774 12.5806 24.6774H17.4194C17.6866 24.6774 17.9032 24.4608 17.9032 24.1935C17.9032 23.9263 17.6866 23.7097 17.4194 23.7097Z" fill="black"/>
<path d="M15 5.32257C13.9311 5.32257 13.0645 6.18912 13.0645 7.25805C13.0645 8.32699 13.9311 9.19354 15 9.19354C16.0689 9.19354 16.9355 8.32699 16.9355 7.25805C16.9355 6.18912 16.0689 5.32257 15 5.32257ZM15 8.2258C14.4655 8.2258 14.0323 7.79255 14.0323 7.25805C14.0323 6.72356 14.4655 6.29031 15 6.29031C15.5345 6.29031 15.9677 6.72356 15.9677 7.25805C15.9677 7.79255 15.5345 8.2258 15 8.2258Z" fill="black"/>
</svg>
