<svg version="1.1" xmlns="http://www.w3.org/2000/svg" xmlns:xlink="http://www.w3.org/1999/xlink"
  preserveAspectRatio="xMidYMin slice">
  <defs>

    <symbol id="info" viewBox="-7 -7 44 44">
      <path
        d="M15 0C6.71571 0 0 6.71571 0 15C0 23.2843 6.71571 30 15 30C23.2843 30 30 23.2843 30 15C29.9904 6.7197 23.2803 0.00961693 15 0ZM15 29.0323C7.2502 29.0323 0.967742 22.7498 0.967742 15C0.967742 7.2502 7.2502 0.967742 15 0.967742C22.7498 0.967742 29.0323 7.2502 29.0323 15C29.0237 22.7463 22.7463 29.0237 15 29.0323Z" />
      <path
        d="M17.4194 23.7097H15.4839V10.6452C15.4839 10.3779 15.2672 10.1613 15 10.1613H13.5484C13.2812 10.1613 13.0645 10.3779 13.0645 10.6452C13.0645 10.9124 13.2812 11.129 13.5484 11.129H14.5161V23.7097H12.5806C12.3134 23.7097 12.0968 23.9263 12.0968 24.1935C12.0968 24.4608 12.3134 24.6774 12.5806 24.6774H17.4194C17.6866 24.6774 17.9032 24.4608 17.9032 24.1935C17.9032 23.9263 17.6866 23.7097 17.4194 23.7097Z" />
      <path
        d="M15 5.32257C13.9311 5.32257 13.0645 6.18912 13.0645 7.25805C13.0645 8.32699 13.9311 9.19354 15 9.19354C16.0689 9.19354 16.9355 8.32699 16.9355 7.25805C16.9355 6.18912 16.0689 5.32257 15 5.32257ZM15 8.2258C14.4655 8.2258 14.0323 7.79255 14.0323 7.25805C14.0323 6.72356 14.4655 6.29031 15 6.29031C15.5345 6.29031 15.9677 6.72356 15.9677 7.25805C15.9677 7.79255 15.5345 8.2258 15 8.2258Z" />
    </symbol>


    <symbol id='product' viewBox="0 0 162 152">
      <path
        d="M107.286 147.511C107.286 149.598 105.595 151.289 103.509 151.289H3.85044C1.76404 151.289 0.0727844 149.598 0.0727844 147.511V54.6018C0.0727844 52.5154 1.76404 50.8242 3.85044 50.8242H103.509C105.596 50.8242 107.287 52.5154 107.287 54.6018V147.511H107.286Z"
        fill="#FFD064" />
      <path
        d="M95.8881 50.8242C97.94 50.8242 99.6038 52.4876 99.6038 54.5399V151.289H103.509C105.596 151.289 107.287 149.598 107.287 147.511V54.6018C107.287 52.5154 105.596 50.8242 103.509 50.8242H95.8881Z"
        fill="#FFC250" />
      <path
        d="M81.661 135.796C79.0125 138.374 74.7755 138.317 72.1976 135.668L70.5974 134.024C70.4516 133.874 70.4548 133.635 70.6046 133.489L81.4122 122.969C81.4855 122.898 81.5266 122.8 81.5266 122.698C81.5266 122.596 81.4852 122.498 81.4122 122.427L70.6046 111.907C70.4548 111.761 70.4516 111.521 70.5974 111.372L72.1976 109.728C74.7755 107.079 79.0125 107.022 81.661 109.6L91.6144 119.288C92.1306 119.791 92.5508 120.391 92.797 121.068C93.4517 122.866 92.9636 124.795 91.6704 126.053L81.661 135.796Z"
        fill="#F9F6F6" />
      <path
        d="M60.2839 68.4597H47.0754C45.8529 68.4597 44.8619 67.4686 44.8619 66.2462V50.8242H62.4974V66.2462C62.4974 67.4686 61.5063 68.4597 60.2839 68.4597Z"
        fill="#26457D" />
      <path
        d="M56.0678 50.8242V66.2462C56.0678 67.4686 55.0768 68.4597 53.8543 68.4597H60.2839C61.5064 68.4597 62.4974 67.4686 62.4974 66.2462V50.8242H56.0678Z"
        fill="#21386B" />
      <path
        d="M20.8233 131.703C19.4741 131.703 18.381 130.61 18.381 129.261V112.735C18.381 111.386 19.4744 110.293 20.8233 110.293C22.1725 110.293 23.2657 111.386 23.2657 112.735V129.261C23.2657 130.61 22.1722 131.703 20.8233 131.703Z"
        fill="#26457D" />
      <path
        d="M13.8522 119.401C13.2219 119.401 12.5922 119.159 12.1145 118.675C11.1664 117.715 11.1762 116.168 12.1357 115.221L19.1065 108.336C20.058 107.397 21.588 107.396 22.5389 108.336L29.51 115.22C30.4698 116.168 30.4796 117.715 29.5315 118.675C28.5832 119.635 27.037 119.644 26.0776 118.696L20.8224 113.507L15.5678 118.696C15.0927 119.166 14.4721 119.401 13.8522 119.401V119.401Z"
        fill="#26457D" />
      <path
        d="M43.1599 131.703C41.8107 131.703 40.7175 130.61 40.7175 129.261V112.735C40.7175 111.386 41.811 110.293 43.1599 110.293C44.5091 110.293 45.6022 111.386 45.6022 112.735V129.261C45.6026 130.61 44.5091 131.703 43.1599 131.703Z"
        fill="#26457D" />
      <path
        d="M50.131 119.401C49.5108 119.401 48.8905 119.167 48.4145 118.697L43.1599 113.507L37.9053 118.697C36.9449 119.645 35.3985 119.634 34.451 118.675C33.503 117.716 33.5128 116.169 34.4722 115.221L41.443 108.337C42.3945 107.397 43.9243 107.397 44.8758 108.337L51.8466 115.221C52.806 116.169 52.8158 117.715 51.8678 118.675C51.3911 119.159 50.761 119.401 50.131 119.401V119.401Z"
        fill="#26457D" />
      <path
        d="M120.813 82.2287C143.52 82.2287 161.927 63.8212 161.927 41.1145C161.927 18.4078 143.52 0.000305176 120.813 0.000305176C98.1063 0.000305176 79.6989 18.4078 79.6989 41.1145C79.6989 63.8212 98.1063 82.2287 120.813 82.2287Z"
        fill="#95D6A4" />
      <path
        d="M120.813 0C119.474 0 118.15 0.0663853 116.843 0.19157C137.687 2.18883 153.988 19.7469 153.988 41.1145C153.988 62.4818 137.687 80.0399 116.843 82.0374C118.15 82.1626 119.474 82.229 120.813 82.229C143.52 82.2287 161.927 63.8212 161.927 41.1145C161.927 18.4075 143.52 0 120.813 0V0Z"
        fill="#78C2A4" />
      <path
        d="M117.093 54.4722C115.801 54.4722 114.51 53.9794 113.524 52.9938L101.382 40.8518C99.4106 38.8808 99.4106 35.6845 101.382 33.7135C103.353 31.7425 106.549 31.7425 108.521 33.7135L117.094 42.2864L132.694 26.6854C134.665 24.7144 137.862 24.7144 139.833 26.6854C141.804 28.6565 141.804 31.8528 139.833 33.8238L120.663 52.9941C119.677 53.9794 118.385 54.4722 117.093 54.4722V54.4722Z"
        fill="#F9F6F6" />
    </symbol>
    <symbol id="brilliant" viewBox="0 0 147 125">
      <path
        d="M1.4734 54.454L69.2982 122.428C69.8644 123.59 70.967 124.29 72.2037 124.305C72.6358 124.35 73.0679 124.35 73.5 124.246C73.9321 124.35 74.3642 124.35 74.7963 124.305C76.033 124.29 77.1356 123.59 77.7018 122.428L145.527 54.454C146.495 53.4706 146.748 52.07 146.301 50.8482C146.331 50.2075 146.242 49.5519 145.899 48.9559L119.183 2.88508C119.154 2.84038 119.109 2.81058 119.079 2.76588C118.558 1.52918 117.336 0.664978 115.905 0.664978H31.0797C29.6493 0.664978 28.4275 1.52918 27.906 2.76588C27.8762 2.81058 27.8315 2.84038 27.8017 2.88508L1.08601 48.9559C0.743308 49.5519 0.653907 50.2075 0.683707 50.8482C0.266507 52.07 0.504905 53.4706 1.4734 54.454ZM41.2117 55.8099L59.7771 99.9139L15.7774 55.8099H41.2117ZM73.5 109.658L50.8222 55.8099H96.1778L73.5 109.658ZM87.2229 99.9139L105.788 55.8099H131.223L87.2229 99.9139ZM112.493 9.85828L133.815 46.6166H106.727L95.8053 9.85828H112.493ZM86.1352 9.85828L97.042 46.6166H49.958L60.8797 9.85828H86.1352ZM34.5067 9.85828H51.1947L40.273 46.6166H13.1699L34.5067 9.85828Z" />

    </symbol>
    <symbol id="van" viewBox="0 0 149 149">
      <path
        d="M34.7668 98.0917C26.5494 98.0917 19.8668 104.774 19.8668 112.992C19.8668 121.209 26.5494 127.892 34.7668 127.892C42.9842 127.892 49.6668 121.209 49.6668 112.992C49.6668 104.774 42.9839 98.0917 34.7668 98.0917ZM34.7668 122.925C29.2884 122.925 24.8335 118.47 24.8335 112.992C24.8335 107.513 29.2887 103.059 34.7668 103.059C40.2448 103.059 44.7 107.514 44.7 112.992C44.7 118.47 40.2448 122.925 34.7668 122.925Z" />
      <path
        d="M119.2 98.0917C110.983 98.0917 104.3 104.774 104.3 112.992C104.3 121.209 110.983 127.892 119.2 127.892C127.417 127.892 134.1 121.209 134.1 112.992C134.1 104.774 127.417 98.0917 119.2 98.0917ZM119.2 122.925C113.722 122.925 109.267 118.47 109.267 112.992C109.267 107.513 113.722 103.059 119.2 103.059C124.678 103.059 129.133 107.514 129.133 112.992C129.133 118.47 124.678 122.925 119.2 122.925Z" />
      <path
        d="M148.605 84.3317L126.255 49.5649C125.798 48.8545 125.011 48.425 124.166 48.425H96.85C95.4767 48.425 94.3668 49.5375 94.3668 50.9082V112.991C94.3668 114.365 95.4767 115.475 96.85 115.475H106.783V110.508H99.3333V53.3918H122.811L144.033 86.4052V110.509H131.616V115.475H146.517C147.89 115.475 149 114.365 149 112.992V85.675C149 85.2006 148.864 84.7312 148.605 84.3317Z" />
      <path
        d="M109.267 80.7082V63.325H129.134V58.3582H106.784C105.41 58.3582 104.3 59.4708 104.3 60.8414V83.1915C104.3 84.5648 105.41 85.6747 106.784 85.6747H144.034V80.7079H109.267V80.7082Z" />
      <path
        d="M96.85 31.0417H2.48324C1.11255 31.0417 0 32.1543 0 33.525V112.992C0 114.365 1.11255 115.475 2.48324 115.475H22.35V110.508H4.96676V36.0082H94.3668V110.508H47.1832V115.475H96.85C98.2233 115.475 99.3332 114.365 99.3332 112.992V33.525C99.3332 32.1543 98.2233 31.0417 96.85 31.0417Z" />
      <path d="M17.3832 100.575H2.48325V105.542H17.3832V100.575Z" />
      <path d="M94.3667 100.575H52.15V105.542H94.3667V100.575Z" />
      <path d="M146.516 100.575H136.583V105.542H146.516V100.575Z" />
      <path d="M96.85 40.975H9.93323V45.9418H96.85V40.975Z" />
      <path d="M37.25 110.508H32.2832V115.475H37.25V110.508Z" />
      <path d="M121.684 110.508H116.717V115.475H121.684V110.508Z" />
      <path d="M44.7 21.1082H9.93323V26.075H44.7V21.1082Z" />
      <path d="M4.96676 21.1082H0V26.075H4.96676V21.1082Z" />
    </symbol>

    <symbol id="user" viewBox="-15 0 75 40">
      <path
        d="M23.6572 0.182648C11.0752 0.182648 0.838989 9.65932 0.838989 21.3076C0.838989 26.4093 2.80288 31.0942 6.0674 34.7488C6.07577 34.7593 6.07653 34.7727 6.08565 34.7826C8.44277 37.4141 11.4031 39.4315 14.7018 40.7349C14.7398 40.7497 14.7771 40.7659 14.8151 40.7807C15.0821 40.8849 15.3521 40.9814 15.6229 41.0757C15.7294 41.113 15.8359 41.1511 15.9439 41.187C16.1774 41.2644 16.4124 41.3377 16.649 41.4081C16.8003 41.4531 16.9517 41.4975 17.1046 41.5398C17.3137 41.5975 17.5237 41.6531 17.7351 41.7059C17.9207 41.7524 18.1078 41.7954 18.2949 41.8369C18.4843 41.8792 18.6745 41.9214 18.8654 41.9587C19.0783 42.001 19.2936 42.0383 19.5096 42.0749C19.683 42.1045 19.8557 42.1355 20.0306 42.1615C20.2702 42.1975 20.5113 42.2256 20.7532 42.2545C20.9091 42.2728 21.0643 42.2939 21.221 42.3094C21.4948 42.3362 21.7709 42.3552 22.0477 42.3728C22.1763 42.3812 22.3041 42.3939 22.4334 42.4003C22.8373 42.4214 23.2457 42.4326 23.6572 42.4326C24.0687 42.4326 24.4771 42.4214 24.8825 42.4017C25.0118 42.3953 25.1396 42.3827 25.2682 42.3742C25.545 42.3559 25.8211 42.3376 26.0949 42.3108C26.2516 42.2953 26.4068 42.2742 26.5627 42.2559C26.8046 42.227 27.0457 42.1989 27.2853 42.163C27.4595 42.1369 27.6329 42.1059 27.8063 42.0763C28.0215 42.0397 28.2368 42.0024 28.4505 41.9602C28.6414 41.9221 28.8308 41.8806 29.021 41.8383C29.2081 41.7961 29.3952 41.7531 29.5808 41.7074C29.7922 41.6552 30.0022 41.5989 30.2113 41.5412C30.3642 41.4989 30.5156 41.4546 30.6669 41.4095C30.9035 41.3391 31.1385 41.2658 31.372 41.1884C31.4793 41.1525 31.5857 41.1144 31.693 41.0771C31.9645 40.9828 32.2338 40.8856 32.5008 40.7821C32.5388 40.7673 32.5761 40.7511 32.6141 40.7363C35.9121 39.4329 38.8731 37.4155 41.2302 34.784C41.2394 34.7741 41.2401 34.76 41.2485 34.7502C44.5115 31.0942 46.4754 26.4093 46.4754 21.3076C46.4754 9.65932 36.2391 0.182648 23.6572 0.182648ZM32.9039 39.0667C32.8925 39.0717 32.8818 39.0773 32.8704 39.0822C32.5989 39.2033 32.3228 39.3174 32.0444 39.4287C31.9813 39.4533 31.9189 39.4787 31.8558 39.5033C31.6124 39.5977 31.3659 39.6871 31.118 39.773C31.0145 39.8089 30.9111 39.8441 30.8069 39.8779C30.5871 39.9505 30.3665 40.0202 30.1436 40.0864C30.0052 40.1272 29.866 40.1659 29.7268 40.204C29.5291 40.2589 29.3306 40.3117 29.1298 40.361C28.9609 40.4025 28.7905 40.4406 28.6201 40.4779C28.4414 40.5173 28.2634 40.5575 28.0832 40.5927C27.8862 40.6314 27.6876 40.6645 27.4899 40.6976C27.3294 40.725 27.1697 40.7539 27.0077 40.7779C26.7848 40.8102 26.5597 40.8363 26.3353 40.8624C26.193 40.8793 26.0516 40.899 25.9078 40.9131C25.6515 40.9384 25.3929 40.9546 25.135 40.9715C25.0202 40.9785 24.9061 40.9905 24.7897 40.9961C24.4132 41.0145 24.036 41.0243 23.6572 41.0243C23.2784 41.0243 22.9011 41.0145 22.5254 40.9961C22.4098 40.9905 22.2957 40.9792 22.1801 40.9715C21.9215 40.9553 21.6636 40.9384 21.4073 40.9131C21.2636 40.899 21.1221 40.8793 20.9799 40.8624C20.7555 40.8363 20.5303 40.8102 20.3075 40.7779C20.1455 40.7539 19.9857 40.725 19.8253 40.6976C19.6267 40.6645 19.4282 40.6307 19.232 40.5927C19.0517 40.5575 18.873 40.5173 18.695 40.4779C18.5246 40.4399 18.3542 40.4025 18.1854 40.361C17.9853 40.3117 17.7861 40.2582 17.5883 40.204C17.4491 40.1659 17.3099 40.1272 17.1715 40.0864C16.9486 40.0202 16.7273 39.9505 16.5082 39.8779C16.404 39.8434 16.3006 39.8082 16.1972 39.773C15.9492 39.6871 15.7028 39.5977 15.4594 39.5033C15.3962 39.4794 15.3346 39.454 15.2715 39.4294C14.9931 39.3188 14.717 39.204 14.4447 39.0829C14.4333 39.078 14.4227 39.0731 14.4113 39.0674C11.7575 37.8788 9.41331 36.1916 7.51103 34.1425C8.98128 29.1302 13.1433 25.0897 18.498 23.4821C18.6037 23.542 18.714 23.5955 18.8228 23.6518C18.8867 23.6849 18.9498 23.7201 19.0144 23.7518C19.2411 23.8631 19.4708 23.9673 19.7058 24.0609C19.8861 24.1342 20.0724 24.1961 20.258 24.2595C20.2945 24.2715 20.3311 24.2849 20.3676 24.2968C21.3989 24.6348 22.5026 24.8285 23.6572 24.8285C24.8118 24.8285 25.9154 24.6348 26.9461 24.2968C26.9826 24.2849 27.0191 24.2715 27.0556 24.2595C27.2412 24.1961 27.4275 24.1342 27.6078 24.0609C27.8428 23.9673 28.0725 23.8631 28.2992 23.7518C28.3638 23.7194 28.427 23.6849 28.4908 23.6518C28.5996 23.5955 28.7107 23.542 28.8171 23.4814C34.1718 25.0897 38.3331 29.1302 39.8041 34.1418C37.9018 36.1902 35.5576 37.8774 32.9039 39.0667ZM15.2905 15.6743C15.2905 11.4035 19.0441 7.92848 23.6572 7.92848C28.2703 7.92848 32.0239 11.4035 32.0239 15.6743C32.0239 18.391 30.5019 20.7816 28.2087 22.1646C27.909 22.3449 27.5971 22.5061 27.2769 22.647C27.2389 22.6639 27.2016 22.6815 27.1636 22.6977C24.9609 23.6251 22.3535 23.6251 20.1508 22.6977C20.1128 22.6815 20.0747 22.6639 20.0375 22.647C19.7165 22.5061 19.4054 22.3449 19.1057 22.1646C16.8125 20.7816 15.2905 18.391 15.2905 15.6743ZM40.945 32.8018C39.2207 28.0881 35.2869 24.2785 30.2608 22.4688C32.2711 20.7922 33.5451 18.3713 33.5451 15.6743C33.5451 10.6268 29.1092 6.52015 23.6572 6.52015C18.2052 6.52015 13.7693 10.6268 13.7693 15.6743C13.7693 18.3713 15.0433 20.7922 17.0544 22.4688C12.0283 24.2792 8.09442 28.0881 6.37012 32.8018C3.85023 29.5633 2.3602 25.5946 2.3602 21.3076C2.3602 10.436 11.9142 1.59098 23.6572 1.59098C35.4002 1.59098 44.9542 10.436 44.9542 21.3076C44.9542 25.5946 43.4641 29.5633 40.945 32.8018Z" />
    </symbol>
    <symbol id="cart" viewBox="-20 0 90 40">
      <path
        d="M14.8181 39.7487C12.1867 39.7487 10.0537 42.1731 10.0537 45.1637C10.0537 48.1545 12.1868 50.5788 14.8181 50.5788C17.4495 50.5788 19.5825 48.1543 19.5825 45.1637C19.5826 42.1731 17.4495 39.7487 14.8181 39.7487ZM14.8181 48.1722C13.3563 48.1722 12.1712 46.8253 12.1712 45.1638C12.1712 43.5024 13.3563 42.1555 14.8181 42.1555C16.2799 42.1555 17.465 43.5024 17.465 45.1638C17.4651 46.8253 16.2799 48.1722 14.8181 48.1722Z" />
      <path
        d="M34.9345 39.7487C32.3032 39.7487 30.1702 42.1731 30.1702 45.1637C30.1702 48.1545 32.3033 50.5788 34.9345 50.5788C37.5657 50.5788 39.6988 48.1543 39.6988 45.1637C39.6988 42.1731 37.5658 39.7487 34.9345 39.7487ZM34.9345 48.1722C33.4727 48.1722 32.2877 46.8253 32.2877 45.1638C32.2877 43.5024 33.4727 42.1555 34.9345 42.1555C36.3963 42.1555 37.5813 43.5024 37.5813 45.1638C37.5814 46.8253 36.3963 48.1722 34.9345 48.1722Z" />
      <path
        d="M45.681 8.1606C45.4605 7.88685 45.1589 7.71549 44.834 7.67921L10.3717 7.1377L9.41885 3.82843C8.74757 1.61622 6.92492 0.12276 4.86618 0.0979996H1.31937C0.734622 0.0979996 0.26062 0.636742 0.26062 1.30136C0.26062 1.96598 0.734622 2.50472 1.31937 2.50472H4.86618C6.01734 2.53363 7.03101 3.37376 7.40723 4.61063L14.1303 27.655L13.601 29.0388C13.0105 30.7693 13.1879 32.7169 14.0774 34.2734C14.9584 35.8021 16.4406 36.7455 18.0478 36.8005H38.6405C39.2253 36.8005 39.6993 36.2617 39.6993 35.5971C39.6993 34.9325 39.2253 34.3937 38.6405 34.3937H18.0477C17.1401 34.3679 16.3046 33.8253 15.8243 32.9497C15.3492 32.0848 15.2517 31.0193 15.5596 30.0616L15.9831 28.9786L38.2699 26.3311C40.7179 26.0247 42.7316 24.001 43.299 21.277L45.84 9.18327C45.9545 8.83501 45.8937 8.44333 45.681 8.1606ZM41.2343 20.7356C40.8906 22.4891 39.5808 23.7825 38.0052 23.9245L15.9831 26.5117L11.0599 9.54443L43.5106 10.0859L41.2343 20.7356Z" />
    </symbol>
  </defs>
  <symbol id="liked" viewBox="-15 0 70 40">
    <path
      d="M27.9417 3.35654C24.6884 3.33915 21.5956 4.76796 19.5 7.25649C17.4175 4.75095 14.316 3.31808 11.0582 3.35654C4.95089 3.35654 0 8.30743 0 14.4147C0 24.8806 18.2658 35.0995 19.0063 35.4945C19.3051 35.6941 19.6948 35.6941 19.9937 35.4945C20.7342 35.0995 39 25.0287 39 14.4147C39 8.30743 34.049 3.35654 27.9417 3.35654ZM19.5 33.5198C16.6367 31.8413 1.97469 22.9059 1.97469 14.4147C1.97469 9.39805 6.04151 5.33113 11.0583 5.33113C14.1304 5.29078 17.0054 6.84035 18.6608 9.42857C18.9969 9.89205 19.6452 9.99533 20.1087 9.65913C20.1972 9.59487 20.2751 9.51711 20.3392 9.42857C23.0847 5.22983 28.7141 4.05171 32.9128 6.79716C35.4832 8.47789 37.0303 11.3435 37.0252 14.4146C37.0253 23.0046 22.3632 31.8906 19.5 33.5198Z" />
  </symbol>
  <symbol id="shoe" viewBox="-15 0 70 40">
    <path
      d="M62.8231 1.22784C61.8961 1.24506 60.9762 1.39207 60.0901 1.66468C59.6092 1.82079 59.2926 2.27975 59.3172 2.78477V5.70822C57.1466 7.11716 54.5876 7.80686 52.003 7.67959C51.2526 7.67959 50.6589 7.67959 50.3117 7.60119L42.9862 0.66779C42.4263 0.192589 41.7026 -0.0445914 40.9701 0.00693302C36.9937 0.00693302 27.9097 4.48732 23.1157 7.29876C17.4256 10.659 5.88864 12.608 5.77663 12.6304L5.54141 12.6976C-0.294292 15.117 -0.439904 19.9334 0.332963 22.2408C1.9459 30.5184 20.1923 31 24.3478 31H64.3577C64.9762 31 65.4778 30.4985 65.4778 29.8799V23.9098C66.0619 23.2359 66.4493 22.4145 66.5979 21.5352C66.6021 21.4793 66.6021 21.423 66.5979 21.3672V4.56572C66.5643 2.45994 65.1417 1.22784 62.8231 1.22784ZM18.1873 11.88L19.6658 14.5682C19.9751 15.1095 20.6647 15.2975 21.206 14.9882C21.7472 14.6789 21.9353 13.9894 21.626 13.4481L20.3155 11.0623C21.2676 10.6927 22.1748 10.3006 23.0149 9.87498L24.8855 12.7312C25.2172 13.2535 25.9094 13.4079 26.4315 13.0762C26.9536 12.7445 27.1082 12.0523 26.7765 11.5302C26.7699 11.5197 26.763 11.5095 26.756 11.4993L24.9863 8.79983C25.7928 8.34059 26.6216 7.88135 27.4841 7.43331L29.7243 10.704C30.0505 11.2296 30.7411 11.3913 31.2667 11.0651C31.7923 10.7389 31.954 10.0483 31.6278 9.52271C31.6073 9.48967 31.5851 9.45775 31.5613 9.42708L29.4555 6.40282C30.4524 5.90998 31.4604 5.42834 32.4349 4.9915L35.056 8.79983C35.3993 9.31451 36.0947 9.4534 36.6094 9.1101C37.1241 8.76679 37.263 8.07135 36.9197 7.55666C36.9146 7.5491 36.9094 7.54154 36.9043 7.53412L34.5745 4.17383C36.5885 3.22637 38.7394 2.60262 40.9478 2.32567C41.1076 2.30397 41.2697 2.30397 41.4294 2.32567L45.9098 6.52603C41.4875 12.4562 35.3239 16.8577 28.2795 19.1159C25.1805 18.1066 21.9867 17.416 18.7475 17.0549C15.8669 16.8526 13.1232 15.7474 10.9068 13.8963C13.1469 13.4033 15.6895 12.7312 18.1873 11.88ZM6.26947 14.8482C6.5495 14.8482 7.26636 14.669 8.25205 14.4674C11.025 17.2836 14.7273 18.9955 18.6689 19.2838C22.3541 19.463 30.1275 21.9496 35.4704 23.7642H30.5644C10.2794 23.8426 4.1861 22.2408 2.37154 21.1207C2.11392 20.1127 1.75548 16.7412 6.26947 14.8482ZM63.2376 28.7486H24.8855C19.9571 28.8158 8.20724 28.0429 3.99568 24.1898C7.49038 25.1195 14.7598 26.0828 30.6316 26.0828C34.3503 26.0828 38.1026 26.0828 41.6645 25.9484C45.0248 25.87 48.1947 25.7691 51.0285 25.6571C57.9059 25.3995 62.7111 25.1195 62.7671 25.1083C62.9238 25.1188 63.0809 25.1188 63.2376 25.1083V28.7486ZM64.3577 21.2664C64.2905 21.5912 63.9432 22.8793 62.6775 22.8793C62.5991 22.8793 58.4884 23.1257 52.4511 23.3721C54.6128 15.6883 61.4678 13.1457 64.3577 12.4176V21.2664ZM50.0989 23.4617C47.5562 23.5514 44.756 23.641 41.8213 23.7082C40.8245 23.3273 36.5905 21.7592 31.8413 20.2359C38.0477 17.6478 43.4582 13.4624 47.5226 8.10523L48.99 9.51655C49.157 9.67322 49.3681 9.77487 49.5948 9.80778C50.3785 9.9097 51.168 9.95843 51.9582 9.95339C54.6464 9.95339 58.4212 9.43814 61.143 6.99633C61.3777 6.78464 61.5119 6.48347 61.5126 6.16746V3.60244C61.9257 3.51844 62.3457 3.47335 62.7671 3.46803C64.3017 3.46803 64.3241 4.14009 64.3353 4.58813L64.3577 10.1214C61.3894 10.8271 52.4174 13.7169 50.0989 23.4617Z" />
  </symbol>
  <symbol id="t-shirt" viewBox="-15 0 70 40">
    <path
      d="M35.8011 11.2978C35.7879 11.2838 35.7741 11.2702 35.7598 11.2573L27.6464 3.99194C27.5446 3.90094 27.4198 3.84296 27.2873 3.825L23.8348 3.35323L24.3596 2.62742C24.5992 2.31559 24.553 1.85861 24.2563 1.60675C24.2494 1.60086 24.2423 1.59514 24.2353 1.58952L22.5573 0.464516C22.5573 0.464516 22.5573 0.428226 22.5573 0.41371C22.4431 0.161673 22.2015 0.000816532 21.9359 0H14.3748H14.292H14.2229C14.1422 0.0169657 14.0651 0.0489012 13.995 0.0943548L11.8061 1.58952C11.4861 1.80753 11.3949 2.25699 11.6023 2.59331C11.6141 2.61254 11.6269 2.63114 11.6404 2.64919L12.1652 3.375L8.71267 3.84677C8.5801 3.86474 8.45537 3.92271 8.35361 4.01371L0.240153 11.2718C-0.0489108 11.5332 -0.0816236 11.9915 0.167045 12.2953C0.179302 12.3103 0.192162 12.3248 0.205627 12.3387L6.47543 18.871V35.2742C6.47543 35.675 6.7846 36 7.16594 36H28.834C29.2154 36 29.5245 35.675 29.5245 35.2742V18.8565L35.7943 12.3242C36.0659 12.0428 36.0689 11.5832 35.8011 11.2978ZM21.9774 1.81452L22.8198 2.3879L19.5675 6.74274L19.0911 5.52339C19.0911 5.52339 19.1325 5.52339 19.1532 5.47258L21.9774 1.81452ZM20.4721 1.45161L18.2763 4.30403H18.1727C18.1223 4.29732 18.0712 4.29732 18.0208 4.30403L15.825 1.45161H20.4721ZM18.7112 8.31048V12.7742H17.6064V7.83871L18.0898 6.80806L18.7112 8.31048ZM14.2299 1.69113L17.1438 5.46532L16.5155 6.80081L13.1872 2.37339L14.2299 1.69113ZM29.4969 16.846V14.2403C29.4969 13.8395 29.1878 13.5145 28.8064 13.5145C28.4251 13.5145 28.1159 13.8395 28.1159 14.2403V21.2298C28.1098 21.2853 28.1098 21.3413 28.1159 21.3968V34.5484H7.89796V14.2258C7.89796 13.825 7.58879 13.5 7.20745 13.5C6.82612 13.5 6.51695 13.825 6.51695 14.2258V16.7952L1.75245 11.8306L9.13397 5.21129L13.1872 4.67419L16.1219 8.61532C16.1526 8.65533 16.1874 8.6919 16.2255 8.72419V13.5C16.2255 13.9008 16.5346 14.2258 16.916 14.2258H19.4018C19.7831 14.2258 20.0923 13.9008 20.0923 13.5V8.41936L22.8543 4.67419L26.9007 5.23306L34.2822 11.8524L29.4969 16.846Z" />
  </symbol>
  <symbol id="floor" viewBox="0 0 947 299" fill="none">
    <path
      d="M146.472 16.96C154.472 5.782 167.651 -0.505351 181.372 0.309922L909.319 43.5614C932.417 44.9338 949.536 65.5591 946.63 88.5146L924.418 263.975C921.832 284.409 904.149 299.539 883.561 298.934L39.0513 274.127C7.04831 273.187 -10.9356 236.901 7.69781 210.865L146.472 16.96Z"
      fill="url(#paint0_linear)" />
    <defs>
      <linearGradient id="paint0_linear" x1="458" y1="-1" x2="458" y2="300" gradientUnits="userSpaceOnUse">
        <stop stop-color="#F76DF1" />
        <stop offset="1" stop-opacity="0.9" />
      </linearGradient>
    </defs>
  </symbol>


  <!-- 19 36 -->
  <symbol id="arrow" viewBox="0 0 25 36">
    <path
      d="M6.29924 17.6325L18.2362 4.44496C18.5649 4.08271 18.7457 3.59838 18.7457 3.08195C18.7457 2.56524 18.5649 2.08119 18.2362 1.71837L17.1902 0.563429C16.862 0.200037 16.4234 0 15.9559 0C15.4884 0 15.0502 0.200037 14.7218 0.563429L0.508989 16.2644C0.179266 16.6283 -0.00129015 17.1147 6.9502e-06 17.6317C-0.00129015 18.151 0.179007 18.6367 0.508989 19.001L14.7086 34.6867C15.037 35.0501 15.4752 35.2501 15.9429 35.2501C16.4104 35.2501 16.8485 35.0501 17.1772 34.6867L18.2229 33.5318C18.9034 32.78 18.9034 31.5563 18.2229 30.8049L6.29924 17.6325Z" />
  </symbol>



  <symbol id="magnifier" width="20" height="20" viewBox="0 0 20 20" />
  <path
    d="M19.7556 18.5773L14.0682 12.8899C15.1698 11.5291 15.8331 9.79989 15.8331 7.91659C15.8331 3.55164 12.2815 0 7.91655 0C3.5516 0 0 3.5516 0 7.91656C0 12.2815 3.55164 15.8331 7.91659 15.8331C9.79989 15.8331 11.5291 15.1698 12.8899 14.0682L18.5773 19.7556C18.7398 19.9181 18.9531 19.9998 19.1665 19.9998C19.3798 19.9998 19.5931 19.9181 19.7556 19.7556C20.0815 19.4298 20.0815 18.9031 19.7556 18.5773ZM7.91659 14.1665C4.46995 14.1665 1.66666 11.3632 1.66666 7.91656C1.66666 4.46991 4.46995 1.66662 7.91659 1.66662C11.3632 1.66662 14.1665 4.46991 14.1665 7.91656C14.1665 11.3632 11.3632 14.1665 7.91659 14.1665Z"
    fill="white" />

  </symbol>






</svg>